<svg xmlns="http://www.w3.org/2000/svg" viewBox="0 -0.5 13 13" shapeRendering="crispEdges">
  <path className="Arrow_outline-top" stroke="#5f5f5f" d="M1 0h11M0 1h1M12 1h1M0 2h1M12 2h1M0 3h1M12 3h1M0 4h1M12 4h1M0 5h1M12 5h1M0 6h1M12 6h1M0 7h1M12 7h1M0 8h1M12 8h1" />
  <path className="Arrow_surface" stroke="#f5f5f5" d="M1 1h11M1 2h11M1 3h11M1 4h3M9 4h3M1 5h4M8 5h4M1 6h5M7 6h5M1 7h11M1 8h11" />
  <path className="Arrow_arrow-inset" stroke="#434343" d="M4 4h5" />
  <path className="Arrow_arrow-body" stroke="#5f5f5f" d="M5 5h3M6 6h1" />
  <path className="Arrow_outline-bottom" stroke="#434343" d="M0 9h1M12 9h1M0 10h1M12 10h1M0 11h1M12 11h1M1 12h11" />
  <path className="Arrow_edge" stroke="#ffffff" d="M1 9h11" />
  <path className="Arrow_front" stroke="#cccccc" d="M1 10h11M1 11h11" />
</svg>
